<svg xmlns="http://www.w3.org/2000/svg" viewBox="0 0 800 1000" fill="none">
  <rect width="800" height="1000" fill="#0a0a0a"/>

  <!-- Studio/mixing setup -->
  <g stroke="#e8e4dc" stroke-width="2" fill="none" opacity="0.9">
    <!-- Mixer representation -->
    <rect x="200" y="450" width="400" height="300" rx="8"/>
    <rect x="220" y="470" width="360" height="260" rx="4"/>

    <!-- Faders -->
    <rect x="250" y="500" width="40" height="180" rx="2"/>
    <rect x="310" y="500" width="40" height="180" rx="2"/>
    <rect x="370" y="500" width="40" height="180" rx="2"/>
    <rect x="430" y="500" width="40" height="180" rx="2"/>
    <rect x="490" y="500" width="40" height="180" rx="2"/>

    <!-- Fader positions -->
    <rect x="260" y="560" width="20" height="30" rx="2" fill="#e8e4dc" opacity="0.3"/>
    <rect x="320" y="600" width="20" height="30" rx="2" fill="#e8e4dc" opacity="0.3"/>
    <rect x="380" y="530" width="20" height="30" rx="2" fill="#e8e4dc" opacity="0.3"/>
    <rect x="440" y="620" width="20" height="30" rx="2" fill="#e8e4dc" opacity="0.3"/>
    <rect x="500" y="580" width="20" height="30" rx="2" fill="#e8e4dc" opacity="0.3"/>
  </g>

  <!-- Speakers -->
  <g stroke="#e8e4dc" stroke-width="1.5" fill="none" opacity="0.8">
    <rect x="100" y="400" width="60" height="100" rx="4"/>
    <circle cx="130" cy="430" r="15"/>
    <circle cx="130" cy="470" r="10"/>

    <rect x="640" y="400" width="60" height="100" rx="4"/>
    <circle cx="670" cy="430" r="15"/>
    <circle cx="670" cy="470" r="10"/>
  </g>

  <!-- Sound waves from speakers -->
  <g stroke="#e8e4dc" stroke-width="1" fill="none" opacity="0.5">
    <path d="M80 450 Q50 400 80 350"/>
    <path d="M60 450 Q20 380 60 310"/>

    <path d="M720 450 Q750 400 720 350"/>
    <path d="M740 450 Q780 380 740 310"/>
  </g>

  <!-- Waveform display above -->
  <g stroke="#e8e4dc" stroke-width="1.5" fill="none" opacity="0.7">
    <rect x="250" y="200" width="300" height="150" rx="4"/>
    <path d="M280 275 Q300 220 320 275 Q340 330 360 275 Q380 220 400 275 Q420 330 440 275 Q460 220 480 275 Q500 330 520 275"/>
  </g>

  <!-- Orbital decoration -->
  <g stroke="#e8e4dc" stroke-width="1" fill="none" opacity="0.3">
    <ellipse cx="400" cy="850" rx="300" ry="60"/>
    <circle cx="150" cy="850" r="5" fill="#e8e4dc"/>
    <circle cx="650" cy="850" r="4" fill="#e8e4dc"/>
  </g>

  <!-- Corner elements -->
  <g stroke="#e8e4dc" stroke-width="1" fill="none" opacity="0.4">
    <path d="M50 50 L50 100 M50 50 L100 50"/>
    <path d="M750 50 L750 100 M750 50 L700 50"/>
    <path d="M50 950 L50 900 M50 950 L100 950"/>
    <path d="M750 950 L750 900 M750 950 L700 950"/>
  </g>
</svg>
