<svg xmlns="http://www.w3.org/2000/svg" viewBox="0 0 800 600" fill="none">
  <rect width="800" height="600" fill="#0a0a0a"/>

  <!-- Crowd with raised hands -->
  <g stroke="#e8e4dc" stroke-width="1.5" fill="none" opacity="0.9">
    <path d="M50 600 L50 500 Q55 480 60 470 L70 440"/>
    <path d="M60 600 L70 520 L80 480"/>

    <path d="M150 600 L150 480 Q160 460 170 450"/>
    <path d="M170 600 L180 500 Q190 475 200 460"/>

    <path d="M280 600 L280 450 L270 400"/>
    <path d="M300 600 L310 470 L320 420"/>

    <path d="M400 600 L400 430 Q410 400 420 380"/>
    <path d="M420 600 L430 450 L440 400"/>

    <path d="M520 600 L520 460 L510 410"/>
    <path d="M540 600 L550 480 L560 430"/>

    <path d="M640 600 L640 490 Q650 470 660 460"/>
    <path d="M660 600 L670 510 L680 470"/>

    <path d="M740 600 L740 510 Q750 490 760 480"/>
  </g>

  <!-- Stage lights -->
  <g stroke="#e8e4dc" stroke-width="1" fill="none" opacity="0.5">
    <path d="M200 0 L300 200"/>
    <path d="M400 0 L400 180"/>
    <path d="M600 0 L500 200"/>
  </g>

  <!-- Light beams -->
  <g stroke="#e8e4dc" stroke-width="0.5" fill="none" opacity="0.3">
    <path d="M200 0 L250 600"/>
    <path d="M200 0 L350 600"/>
    <path d="M400 0 L350 600"/>
    <path d="M400 0 L450 600"/>
    <path d="M600 0 L450 600"/>
    <path d="M600 0 L550 600"/>
  </g>

  <!-- Corner elements -->
  <g stroke="#e8e4dc" stroke-width="1" fill="none" opacity="0.4">
    <path d="M30 30 L30 60 M30 30 L60 30"/>
    <path d="M770 30 L770 60 M770 30 L740 30"/>
    <path d="M30 570 L30 540 M30 570 L60 570"/>
    <path d="M770 570 L770 540 M770 570 L740 570"/>
  </g>
</svg>
