<svg xmlns="http://www.w3.org/2000/svg" viewBox="0 0 600 600" fill="none">
  <rect width="600" height="600" fill="#0a0a0a"/>

  <!-- Sound wave visualization - circular -->
  <g stroke="#e8e4dc" stroke-width="1.5" fill="none" opacity="0.9">
    <!-- Concentric wave circles -->
    <circle cx="300" cy="300" r="50"/>
    <circle cx="300" cy="300" r="80"/>
    <circle cx="300" cy="300" r="110"/>
    <circle cx="300" cy="300" r="140"/>
    <circle cx="300" cy="300" r="170"/>
    <circle cx="300" cy="300" r="200"/>

    <!-- Radial lines -->
    <line x1="300" y1="100" x2="300" y2="200"/>
    <line x1="300" y1="400" x2="300" y2="500"/>
    <line x1="100" y1="300" x2="200" y2="300"/>
    <line x1="400" y1="300" x2="500" y2="300"/>

    <!-- Diagonal lines -->
    <line x1="158" y1="158" x2="229" y2="229"/>
    <line x1="442" y1="158" x2="371" y2="229"/>
    <line x1="158" y1="442" x2="229" y2="371"/>
    <line x1="442" y1="442" x2="371" y2="371"/>
  </g>

  <!-- Center element -->
  <g stroke="#e8e4dc" stroke-width="2" fill="none" opacity="0.9">
    <circle cx="300" cy="300" r="25"/>
    <circle cx="300" cy="300" r="15" fill="#e8e4dc" opacity="0.2"/>
  </g>

  <!-- Floating particles -->
  <g fill="#e8e4dc" opacity="0.6">
    <circle cx="150" cy="150" r="4"/>
    <circle cx="450" cy="150" r="3"/>
    <circle cx="150" cy="450" r="3"/>
    <circle cx="450" cy="450" r="4"/>
    <circle cx="80" cy="300" r="2"/>
    <circle cx="520" cy="300" r="2"/>
  </g>

  <!-- Corner elements -->
  <g stroke="#e8e4dc" stroke-width="1" fill="none" opacity="0.5">
    <path d="M40 40 L40 80 M40 40 L80 40"/>
    <path d="M560 40 L560 80 M560 40 L520 40"/>
    <path d="M40 560 L40 520 M40 560 L80 560"/>
    <path d="M560 560 L560 520 M560 560 L520 560"/>
  </g>
</svg>
