<svg xmlns="http://www.w3.org/2000/svg" viewBox="0 0 600 600" fill="none">
  <rect width="600" height="600" fill="#0a0a0a"/>

  <!-- Mountain landscape with moon -->
  <g stroke="#e8e4dc" stroke-width="1.5" fill="none" opacity="0.9">
    <!-- Mountains -->
    <path d="M0 500 L150 300 L250 400 L400 200 L500 350 L600 250 L600 500 Z"/>
    <path d="M0 550 L200 380 L350 450 L550 300 L600 380 L600 550 Z" opacity="0.6"/>
  </g>

  <!-- Moon -->
  <g stroke="#e8e4dc" stroke-width="1.5" fill="none" opacity="0.9">
    <circle cx="450" cy="150" r="60"/>
    <circle cx="435" cy="135" r="10"/>
    <circle cx="470" cy="160" r="15"/>
    <circle cx="445" cy="175" r="8"/>
  </g>

  <!-- Stars -->
  <g fill="#e8e4dc" opacity="0.7">
    <circle cx="100" cy="100" r="3"/>
    <circle cx="200" cy="80" r="2"/>
    <circle cx="150" cy="150" r="2"/>
    <circle cx="300" cy="100" r="2.5"/>
    <circle cx="350" cy="60" r="2"/>
    <circle cx="550" cy="80" r="2"/>
    <circle cx="80" cy="200" r="2"/>
    <circle cx="250" cy="180" r="1.5"/>
  </g>

  <!-- Sound waves in sky -->
  <g stroke="#e8e4dc" stroke-width="1" fill="none" opacity="0.4">
    <path d="M100 350 Q150 320 200 350 Q250 380 300 350"/>
    <path d="M80 380 Q150 340 220 380 Q290 420 360 380"/>
  </g>

  <!-- Corner elements -->
  <g stroke="#e8e4dc" stroke-width="1" fill="none" opacity="0.5">
    <path d="M40 40 L40 80 M40 40 L80 40"/>
    <path d="M560 40 L560 80 M560 40 L520 40"/>
    <path d="M40 560 L40 520 M40 560 L80 560"/>
    <path d="M560 560 L560 520 M560 560 L520 560"/>
  </g>
</svg>
