<svg xmlns="http://www.w3.org/2000/svg" viewBox="0 0 600 600" fill="none">
  <rect width="600" height="600" fill="#0a0a0a"/>

  <!-- Abstract geometric pattern -->
  <g stroke="#e8e4dc" stroke-width="1.5" fill="none" opacity="0.9">
    <!-- Central hexagon -->
    <polygon points="300,150 400,200 400,300 300,350 200,300 200,200"/>
    <polygon points="300,180 370,215 370,285 300,320 230,285 230,215"/>

    <!-- Extending lines -->
    <line x1="300" y1="150" x2="300" y2="80"/>
    <line x1="400" y1="200" x2="470" y2="160"/>
    <line x1="400" y1="300" x2="470" y2="340"/>
    <line x1="300" y1="350" x2="300" y2="420"/>
    <line x1="200" y1="300" x2="130" y2="340"/>
    <line x1="200" y1="200" x2="130" y2="160"/>

    <!-- End circles -->
    <circle cx="300" cy="70" r="10"/>
    <circle cx="480" cy="155" r="10"/>
    <circle cx="480" cy="345" r="10"/>
    <circle cx="300" cy="430" r="10"/>
    <circle cx="120" cy="345" r="10"/>
    <circle cx="120" cy="155" r="10"/>
  </g>

  <!-- Inner waveform -->
  <g stroke="#e8e4dc" stroke-width="1.5" fill="none" opacity="0.7">
    <path d="M250 250 L260 230 L270 270 L280 220 L290 280 L300 210 L310 280 L320 220 L330 270 L340 230 L350 250"/>
  </g>

  <!-- Orbital elements -->
  <g stroke="#e8e4dc" stroke-width="1" fill="none" opacity="0.4">
    <ellipse cx="300" cy="480" rx="150" ry="40"/>
    <ellipse cx="300" cy="120" rx="120" ry="30"/>
    <circle cx="180" cy="480" r="5" fill="#e8e4dc"/>
    <circle cx="400" cy="120" r="4" fill="#e8e4dc"/>
  </g>

  <!-- Corner elements -->
  <g stroke="#e8e4dc" stroke-width="1" fill="none" opacity="0.5">
    <path d="M40 40 L40 80 M40 40 L80 40"/>
    <path d="M560 40 L560 80 M560 40 L520 40"/>
    <path d="M40 560 L40 520 M40 560 L80 560"/>
    <path d="M560 560 L560 520 M560 560 L520 560"/>
  </g>
</svg>
