<svg xmlns="http://www.w3.org/2000/svg" viewBox="0 0 800 600" fill="none">
  <rect width="800" height="600" fill="#0a0a0a"/>

  <!-- Building facade -->
  <g stroke="#e8e4dc" stroke-width="2" fill="none" opacity="0.9">
    <rect x="200" y="150" width="400" height="350" rx="4"/>
    <rect x="220" y="170" width="360" height="310" rx="2"/>

    <!-- Windows -->
    <rect x="250" y="200" width="70" height="90" rx="2"/>
    <rect x="365" y="200" width="70" height="90" rx="2"/>
    <rect x="480" y="200" width="70" height="90" rx="2"/>

    <rect x="250" y="320" width="70" height="90" rx="2"/>
    <rect x="365" y="320" width="70" height="90" rx="2"/>
    <rect x="480" y="320" width="70" height="90" rx="2"/>

    <!-- Door -->
    <rect x="350" y="430" width="100" height="70" rx="2"/>
    <circle cx="430" cy="465" r="5"/>
  </g>

  <!-- Sound waves from building -->
  <g stroke="#e8e4dc" stroke-width="1" fill="none" opacity="0.5">
    <path d="M400 130 Q350 100 400 70 Q450 100 400 130"/>
    <path d="M400 110 Q320 60 400 10 Q480 60 400 110"/>
  </g>

  <!-- Address marker -->
  <g stroke="#e8e4dc" stroke-width="1.5" fill="none" opacity="0.7">
    <path d="M400 550 L400 520"/>
    <circle cx="400" cy="560" r="10"/>
  </g>

  <!-- Decorative elements -->
  <g stroke="#e8e4dc" stroke-width="1" fill="none" opacity="0.4">
    <ellipse cx="400" cy="580" rx="200" ry="30"/>
  </g>

  <!-- Corner elements -->
  <g stroke="#e8e4dc" stroke-width="1" fill="none" opacity="0.4">
    <path d="M30 30 L30 60 M30 30 L60 30"/>
    <path d="M770 30 L770 60 M770 30 L740 30"/>
    <path d="M30 570 L30 540 M30 570 L60 570"/>
    <path d="M770 570 L770 540 M770 570 L740 570"/>
  </g>
</svg>
