<svg xmlns="http://www.w3.org/2000/svg" viewBox="0 0 800 600" fill="none">
  <rect width="800" height="600" fill="#0a0a0a"/>

  <!-- Central abstract symbol -->
  <g stroke="#e8e4dc" stroke-width="2" fill="none" opacity="0.9">
    <!-- Infinity-like symbol / flow -->
    <path d="M250 300 Q250 200 350 200 Q450 200 400 300 Q350 400 450 400 Q550 400 550 300 Q550 200 450 200 Q350 200 400 300 Q450 400 350 400 Q250 400 250 300"/>

    <!-- Inner circles -->
    <circle cx="300" cy="300" r="30"/>
    <circle cx="500" cy="300" r="30"/>
  </g>

  <!-- Radiating lines -->
  <g stroke="#e8e4dc" stroke-width="1" fill="none" opacity="0.5">
    <line x1="400" y1="150" x2="400" y2="80"/>
    <line x1="400" y1="450" x2="400" y2="520"/>
    <line x1="200" y1="300" x2="130" y2="300"/>
    <line x1="600" y1="300" x2="670" y2="300"/>

    <line x1="280" y1="180" x2="230" y2="130"/>
    <line x1="520" y1="180" x2="570" y2="130"/>
    <line x1="280" y1="420" x2="230" y2="470"/>
    <line x1="520" y1="420" x2="570" y2="470"/>
  </g>

  <!-- End points -->
  <g fill="#e8e4dc" opacity="0.6">
    <circle cx="400" cy="70" r="5"/>
    <circle cx="400" cy="530" r="5"/>
    <circle cx="120" cy="300" r="5"/>
    <circle cx="680" cy="300" r="5"/>
    <circle cx="220" cy="120" r="4"/>
    <circle cx="580" cy="120" r="4"/>
    <circle cx="220" cy="480" r="4"/>
    <circle cx="580" cy="480" r="4"/>
  </g>

  <!-- Orbital ring -->
  <g stroke="#e8e4dc" stroke-width="1" fill="none" opacity="0.3">
    <ellipse cx="400" cy="300" rx="280" ry="100"/>
  </g>

  <!-- Corner elements -->
  <g stroke="#e8e4dc" stroke-width="1" fill="none" opacity="0.4">
    <path d="M30 30 L30 60 M30 30 L60 30"/>
    <path d="M770 30 L770 60 M770 30 L740 30"/>
    <path d="M30 570 L30 540 M30 570 L60 570"/>
    <path d="M770 570 L770 540 M770 570 L740 570"/>
  </g>
</svg>
